# xmcd
#
# Track frame offsets:
# 150
# 13050
# 27488
# 43568
# 62397
# 78107
# 92579
# 104932
# 123796
# 136461
# 149267
# 163225
# 179072
# 194381
# 208188
# 221550
# 240629
# 248371
# 263466
#
# Disc length: 3676 seconds
#
#
# Revision: 0
# Processed by: cddbd v1.4PL0 Copyright (c) Steve Scherf et al.
# Submitted via: FreeRIP 2.40 
#
DISCID=0d0e5a13
DTITLE=Hand Picked
DYEAR=1900
DGENRE=
TTITLE0=Foggy Mountain Breakdown
TTITLE1=Don't let your deal go Down
TTITLE2=James Louis Henry
TTITLE3=Bonaparte's Retreat
TTITLE4=Dixie Breakdown
TTITLE5=Turkey in the Straw
TTITLE6=Little Rock Getaway
TTITLE7=Faded Love
TTITLE8=Bullabounce
TTITLE9=Redwing
TTITLE10=Duelling Banjos
TTITLE11=Tennessee Waltz
TTITLE12=Dear Old Dixie
TTITLE13=SallyAnne
TTITLE14=The Ballad of Jed Clampet
TTITLE15=Orange Blossom Special
TTITLE16=Fiddler's Dream
TTITLE17=Arkansaw Traveller
TTITLE18=Early Winter
EXTD=
EXTT0=
EXTT1=
EXTT2=
EXTT3=
EXTT4=
EXTT5=
EXTT6=
EXTT7=
EXTT8=
EXTT9=
EXTT10=
EXTT11=
EXTT12=
EXTT13=
EXTT14=
EXTT15=
EXTT16=
EXTT17=
EXTT18=
PLAYORDER=
